<mxfile host="app.diagrams.net" agent="Mozilla/5.0 (Windows NT 10.0; Win64; x64) AppleWebKit/537.36 (KHTML, like Gecko) Chrome/131.0.0.0 Safari/537.36 Edg/131.0.0.0" version="24.9.2">
  <diagram name="Page-1" id="-P99BaR7VWwVlDrjm6Pr">
    <mxGraphModel dx="1895" dy="1027" grid="1" gridSize="10" guides="1" tooltips="1" connect="1" arrows="1" fold="1" page="1" pageScale="1" pageWidth="850" pageHeight="1100" math="0" shadow="0">
      <root>
        <mxCell id="0" />
        <mxCell id="1" parent="0" />
        <mxCell id="02NPnoRnYFI-Kf9A-CZp-2" value="" style="rounded=0;whiteSpace=wrap;html=1;" vertex="1" parent="1">
          <mxGeometry x="300" y="70" width="310" height="230" as="geometry" />
        </mxCell>
        <mxCell id="02NPnoRnYFI-Kf9A-CZp-10" style="edgeStyle=orthogonalEdgeStyle;rounded=0;orthogonalLoop=1;jettySize=auto;html=1;exitX=0.75;exitY=0;exitDx=0;exitDy=0;entryX=0.75;entryY=1;entryDx=0;entryDy=0;" edge="1" parent="1" source="02NPnoRnYFI-Kf9A-CZp-3" target="02NPnoRnYFI-Kf9A-CZp-2">
          <mxGeometry relative="1" as="geometry" />
        </mxCell>
        <mxCell id="02NPnoRnYFI-Kf9A-CZp-3" value="" style="rounded=0;whiteSpace=wrap;html=1;" vertex="1" parent="1">
          <mxGeometry x="300" y="350" width="310" height="230" as="geometry" />
        </mxCell>
        <mxCell id="02NPnoRnYFI-Kf9A-CZp-4" value="" style="rounded=0;whiteSpace=wrap;html=1;" vertex="1" parent="1">
          <mxGeometry x="300" y="630" width="310" height="230" as="geometry" />
        </mxCell>
        <mxCell id="02NPnoRnYFI-Kf9A-CZp-5" value="" style="rounded=0;whiteSpace=wrap;html=1;" vertex="1" parent="1">
          <mxGeometry x="300" y="930" width="310" height="70" as="geometry" />
        </mxCell>
        <mxCell id="02NPnoRnYFI-Kf9A-CZp-6" value="" style="endArrow=classic;html=1;rounded=0;" edge="1" parent="1">
          <mxGeometry width="50" height="50" relative="1" as="geometry">
            <mxPoint x="240" y="880" as="sourcePoint" />
            <mxPoint x="240" y="320" as="targetPoint" />
          </mxGeometry>
        </mxCell>
        <mxCell id="02NPnoRnYFI-Kf9A-CZp-7" value="" style="endArrow=classic;html=1;rounded=0;" edge="1" parent="1">
          <mxGeometry width="50" height="50" relative="1" as="geometry">
            <mxPoint x="170" y="880" as="sourcePoint" />
            <mxPoint x="170" y="320" as="targetPoint" />
          </mxGeometry>
        </mxCell>
        <mxCell id="02NPnoRnYFI-Kf9A-CZp-8" value="" style="endArrow=classic;html=1;rounded=0;exitX=0.25;exitY=1;exitDx=0;exitDy=0;entryX=0.25;entryY=0;entryDx=0;entryDy=0;" edge="1" parent="1" source="02NPnoRnYFI-Kf9A-CZp-2" target="02NPnoRnYFI-Kf9A-CZp-3">
          <mxGeometry width="50" height="50" relative="1" as="geometry">
            <mxPoint x="410" y="350" as="sourcePoint" />
            <mxPoint x="470" y="340" as="targetPoint" />
          </mxGeometry>
        </mxCell>
        <mxCell id="02NPnoRnYFI-Kf9A-CZp-11" value="" style="endArrow=classic;html=1;rounded=0;entryX=0.5;entryY=0;entryDx=0;entryDy=0;" edge="1" parent="1" target="02NPnoRnYFI-Kf9A-CZp-2">
          <mxGeometry width="50" height="50" relative="1" as="geometry">
            <mxPoint x="455" y="10" as="sourcePoint" />
            <mxPoint x="460" y="150" as="targetPoint" />
          </mxGeometry>
        </mxCell>
        <mxCell id="02NPnoRnYFI-Kf9A-CZp-13" value="" style="endArrow=classic;html=1;rounded=0;" edge="1" parent="1">
          <mxGeometry width="50" height="50" relative="1" as="geometry">
            <mxPoint x="670" y="330" as="sourcePoint" />
            <mxPoint x="670" y="880" as="targetPoint" />
          </mxGeometry>
        </mxCell>
        <mxCell id="02NPnoRnYFI-Kf9A-CZp-14" value="" style="endArrow=classic;html=1;rounded=0;entryX=0.788;entryY=1.017;entryDx=0;entryDy=0;entryPerimeter=0;" edge="1" parent="1" target="02NPnoRnYFI-Kf9A-CZp-4">
          <mxGeometry width="50" height="50" relative="1" as="geometry">
            <mxPoint x="544" y="928" as="sourcePoint" />
            <mxPoint x="550" y="860" as="targetPoint" />
          </mxGeometry>
        </mxCell>
        <mxCell id="02NPnoRnYFI-Kf9A-CZp-16" value="" style="endArrow=classic;html=1;rounded=0;exitX=0.329;exitY=1.016;exitDx=0;exitDy=0;exitPerimeter=0;entryX=0.329;entryY=-0.034;entryDx=0;entryDy=0;entryPerimeter=0;" edge="1" parent="1" source="02NPnoRnYFI-Kf9A-CZp-4" target="02NPnoRnYFI-Kf9A-CZp-5">
          <mxGeometry width="50" height="50" relative="1" as="geometry">
            <mxPoint x="425" y="910" as="sourcePoint" />
            <mxPoint x="475" y="860" as="targetPoint" />
          </mxGeometry>
        </mxCell>
      </root>
    </mxGraphModel>
  </diagram>
</mxfile>
